<?xml version="1.0" encoding="UTF-8"?>
<svg width="400px" height="322px" viewBox="0 0 400 322" version="1.1" xmlns="http://www.w3.org/2000/svg" xmlns:xlink="http://www.w3.org/1999/xlink" xmlns:sketch="http://www.bohemiancoding.com/sketch/ns">
    <!-- Generator: Sketch 3.4.2 (15855) - http://www.bohemiancoding.com/sketch -->
    <title>Logo Bro Round Copy 2</title>
    <desc>Created with Sketch.</desc>
    <defs></defs>
    <g id="Page-1" stroke="none" stroke-width="1" fill="none" fill-rule="evenodd" sketch:type="MSPage">
        <g id="Logo-Bro-Round-Copy-2" sketch:type="MSLayerGroup" transform="translate(6.000000, 5.000000)" stroke="#000000">
            <path d="M105.100985,44 C105.100985,44 10.8353596,114.914551 23.1986413,139.457031 C32.0111412,154.933594 65.9508406,137.681815 65.9508406,137.681815 C66.450134,137.437937 66.5019925,137.509615 66.0627718,137.848685 C66.0627718,137.848685 21.6654364,171.328125 5.36661005,206.542969 C1,217.5 4.99999983,221.5 8.99999983,224 C12.9999998,226.5 18.9948201,228.048592 43.6634836,215.216797 C62.4154352,207.138672 73.7646014,202.086272 73.7646014,202.086272 C74.2729066,201.860643 74.3449892,201.970356 73.9332597,202.326601 C73.9332597,202.326601 49.5937498,223.155273 36.2689538,239.587891 C22.9441578,256.020508 6.24005599,283.488281 4.57754755,286.427734 C2.91503911,289.367187 -4.43181887,298.644531 4.1205163,307.449219 C12.6728515,316.253906 31.6439524,306.324219 44.8451257,300.833984 C58.046299,295.34375 359.987704,172.910156 359.987704,172.910156 C359.987704,172.910156 377.811925,165.658203 377.811923,159.330078 C377.81192,153.001953 353.108152,155.363346 353.108152,155.363346 C352.560539,155.409693 352.551747,155.307715 353.069479,155.138411 C353.069479,155.138411 378.45255,147.167969 378.452548,140.933594 C378.452545,134.699219 357.43558,137.775199 357.43558,137.775199 C356.89806,137.846498 356.888472,137.78765 357.42481,137.635304 C357.42481,137.635304 381.01505,131.431641 381.015048,122.410156 C381.015045,113.388672 352.258751,119.190718 352.258751,119.190718 C351.721809,119.292494 351.707287,119.225562 352.23143,119.035239 C352.23143,119.035239 391.251373,105.5 386.618563,91.96875 C381.985753,78.4375 332.587311,88.2402344 332.587311,88.2402344 L329.419328,100.746689 C329.283748,101.281926 328.91376,101.351554 328.58215,100.908799 C328.58215,100.908799 321.179108,89.9746094 310.911532,89.9746094 C300.643956,89.9746094 275.870516,102.942383 277.150787,130.714844 C232.848053,149.029297 136.93204,189.035156 136.93204,189.035156" id="Path-1-Copy" stroke-width="12" stroke-linecap="square" sketch:type="MSShapeGroup"></path>
            <path d="M185,168.296875 C185,168.296875 243.182617,129.693359 261.210938,93.6513672 C279.239258,57.609375 273.918457,44.4748535 270.816406,36.4042969 C268.636719,31.3847656 257.12793,11.5957031 212.582031,3.55271368e-15" id="Path-2-Copy" stroke-width="10" stroke-linecap="round" sketch:type="MSShapeGroup"></path>
            <path d="M170,57.8066406 C170,57.8066406 190.230469,68.8847656 206.443359,36" id="Path-3-Copy" stroke-width="10" stroke-linecap="round" sketch:type="MSShapeGroup"></path>
            <path d="M223.458008,85.0000142 C223.458008,85.0000142 207.917969,84.9502095 202.092773,90.7441549 C196.267578,96.5381002 190,113.045913 190,113.045913" id="Path-5-Copy" stroke-width="10" stroke-linecap="round" sketch:type="MSShapeGroup"></path>
            <path d="M161,79.3740612 C161,79.3740612 177.90918,75.1484753 181.633789,81.5176159 C185.358398,87.8867565 171.631836,111.3516 171.631836,111.3516" id="Path-6-Copy" stroke-width="10" stroke-linecap="round" sketch:type="MSShapeGroup"></path>
            <path d="M321.876953,94 L332.343262,105.62793 L314,110.067383" id="Path-7-Copy" stroke-width="7" stroke-linecap="round" sketch:type="MSShapeGroup"></path>
            <path d="M332.379395,105.57373 L353.36084,100.674316" id="Path-8-Copy" stroke-width="7" stroke-linecap="round" sketch:type="MSShapeGroup"></path>
            <path d="M229.707788,36 C229.707788,36 214,55 212.55105,59.9960938 C211.1021,64.9921875 212,65.5 214,67.5 C216,69.5 229.151148,66.21875 229.151148,66.21875" id="Path-17" stroke-width="10" stroke-linecap="round" sketch:type="MSShapeGroup"></path>
        </g>
    </g>
</svg>